<?xml version="1.0" encoding="UTF-8"?>
<svg id="Layer_1" data-name="Layer 1" xmlns="http://www.w3.org/2000/svg" viewBox="0 0 2135.43 528.68">
  <defs>
    <style>
      .cls-1, .cls-2 {
        fill: #5f8f9e;
      }

      .cls-1, .cls-3 {
        fill-rule: evenodd;
      }

      .cls-4 {
        font-family: PlusJakartaSans-Bold, 'Plus Jakarta Sans';
        font-size: 318.27px;
        font-variation-settings: 'wght' 700;
        font-weight: 700;
      }

      .cls-5 {
        stroke: #5f8f9e;
        stroke-miterlimit: 10;
        stroke-width: 8.48px;
      }

      .cls-5, .cls-6 {
        fill: none;
      }

      .cls-7, .cls-8, .cls-9 {
        fill: #fff;
      }

      .cls-2 {
        stroke: #fff;
      }

      .cls-2, .cls-6 {
        stroke-miterlimit: 73.41;
        stroke-width: .54px;
      }

      .cls-8 {
        letter-spacing: 0em;
      }

      .cls-10 {
        fill: #94f3e4;
        letter-spacing: 0em;
      }

      .cls-3 {
        fill: #868789;
      }

      .cls-6 {
        stroke: #868789;
      }

      .cls-9 {
        letter-spacing: 0em;
      }
    </style>
  </defs>
  <g>
    <polygon class="cls-1" points="1730.64 138.09 1666.61 244.46 1655.81 220.36 1730.64 138.09 1730.64 138.09"/>
    <path class="cls-5" d="M1426.01,178.02c5.03-19.07,12.37-37.52,22.01-54.81,19.7-35.42,48.73-65.08,83.73-85.93,34.9-20.96,74.93-32.28,115.69-33.01,40.87-.73,81.11,9.22,116.84,28.92,35.63,19.7,65.6,48.31,86.66,82.99,20.96,34.79,32.49,74.4,33.11,114.85.63,40.55-9.43,80.48-29.13,116-19.7,35.42-48.62,65.08-83.73,85.93-6.08,3.67-12.37,7.02-18.76,10.06"/>
    <polygon class="cls-1" points="1646.59 23.98 1642.19 104.35 1670.38 105.92 1674.89 25.44 1646.59 23.98 1646.59 23.98"/>
    <polygon class="cls-6" points="1646.59 23.98 1642.19 104.35 1670.38 105.92 1674.89 25.44 1646.59 23.98 1646.59 23.98"/>
    <polygon class="cls-1" points="1853.03 300.42 1778.63 269.4 1767.94 295.28 1842.24 326.4 1853.03 300.42 1853.03 300.42"/>
    <polygon class="cls-3" points="1774.12 62.33 1722.99 124.37 1744.47 142.39 1795.92 80.15 1774.12 62.33 1774.12 62.33"/>
    <polygon class="cls-2" points="1774.12 62.33 1722.99 124.37 1744.47 142.39 1795.92 80.15 1774.12 62.33 1774.12 62.33"/>
    <polygon class="cls-1" points="1772.97 407.41 1731.79 338.14 1707.79 352.39 1748.66 421.76 1772.97 407.41 1772.97 407.41"/>
    <polygon class="cls-1" points="1852.61 167.12 1774.65 186.93 1781.56 214.38 1859.53 194.47 1852.61 167.12 1852.61 167.12"/>
    <polygon class="cls-1" points="1516.76 71.76 1564.02 136.94 1586.86 120.49 1539.71 55.2 1516.76 71.76 1516.76 71.76"/>
    <polygon class="cls-1" points="1446.55 179.49 1522.52 206.63 1531.95 180.01 1455.87 153.08 1446.55 179.49 1446.55 179.49"/>
  </g>
  <text class="cls-4" transform="translate(0 452.29)"><tspan class="cls-7" x="0" y="0">Mos</tspan><tspan class="cls-8" x="655.32" y="0">t</tspan><tspan class="cls-9" x="785.17" y="0">el </tspan><tspan class="cls-10" x="1116.81" y="0">A&amp;A</tspan></text>
</svg>